<?xml version="1.0" standalone="no"?>
<!DOCTYPE svg PUBLIC "-//W3C//DTD SVG 20010904//EN"
 "http://www.w3.org/TR/2001/REC-SVG-20010904/DTD/svg10.dtd">
<svg version="1.0" xmlns="http://www.w3.org/2000/svg"
 width="139.000000pt" height="139.000000pt" viewBox="0 0 139.000000 139.000000"
 preserveAspectRatio="xMidYMid meet">
<metadata>
Created by potrace 1.11, written by Peter Selinger 2001-2013
</metadata>
<g transform="translate(0.000000,139.000000) scale(0.100000,-0.100000)"
fill="#000000" stroke="none">
<path d="M0 695 l0 -695 695 0 695 0 0 695 0 695 -695 0 -695 0 0 -695z m815
600 c114 -24 209 -77 295 -164 77 -78 110 -125 96 -138 -5 -5 -18 5 -30 21
-11 16 -31 41 -43 55 l-22 26 -1 -50 c0 -45 3 -52 30 -67 82 -47 50 -168 -44
-168 -59 1 -96 37 -96 94 0 28 44 86 66 86 11 0 14 16 14 69 0 68 -1 70 -38
100 -21 16 -60 41 -87 54 l-48 25 -53 -42 c-30 -22 -54 -47 -54 -54 0 -8 12
-23 27 -35 14 -12 38 -35 52 -50 14 -16 41 -45 59 -65 17 -19 32 -39 32 -43 0
-5 -13 -18 -28 -29 -15 -11 -36 -35 -46 -54 -9 -18 -32 -41 -49 -51 -18 -10
-40 -29 -50 -42 -10 -13 -24 -23 -30 -23 -13 0 -40 26 -180 167 l-32 33 32 32
c18 18 46 50 63 70 17 20 39 40 49 43 10 3 23 17 30 31 11 25 8 29 -51 85 -60
57 -65 59 -105 54 -23 -2 -68 -15 -100 -28 -63 -25 -76 -49 -53 -93 8 -13 11
-43 8 -73 -4 -43 -1 -56 23 -93 22 -33 37 -44 61 -48 28 -4 33 -9 36 -37 2
-24 -2 -34 -18 -43 -17 -9 -18 -14 -9 -31 8 -16 7 -26 -5 -44 -20 -31 -20 -69
-1 -99 27 -41 -13 -88 -56 -65 -17 8 -20 17 -15 40 3 16 9 42 12 59 3 16 3 37
0 46 -6 15 -9 15 -26 -4 -25 -26 -27 -102 -4 -137 20 -31 10 -63 -22 -71 -47
-12 -71 38 -39 80 20 26 19 100 0 116 -8 7 -15 19 -15 26 0 12 -4 12 -20 2
-24 -15 -26 -54 -5 -82 33 -44 1 -100 -44 -77 -27 15 -34 41 -16 67 19 29 19
64 1 100 -10 18 -12 33 -6 43 6 11 2 23 -12 38 -18 19 -20 27 -10 48 8 18 19
25 39 25 22 0 34 10 58 48 27 41 30 51 22 83 -8 27 -6 44 8 72 32 68 10 62
-71 -18 -91 -91 -135 -166 -164 -281 -33 -129 -21 -270 34 -386 l25 -53 48 0
c26 0 55 -4 64 -8 12 -6 18 1 27 31 35 116 182 137 240 33 24 -42 27 -76 12
-115 -8 -22 -7 -26 8 -26 9 0 36 -9 59 -19 53 -25 76 -66 71 -132 l-3 -49 40
1 c22 0 58 6 79 12 l40 12 -130 144 c-71 79 -130 151 -132 160 -2 10 22 39 62
74 l65 57 163 0 164 0 64 -65 64 -65 -25 -27 c-14 -16 -66 -74 -117 -129 -51
-56 -92 -105 -92 -108 0 -10 49 23 107 71 69 58 143 171 173 264 26 80 33 215
16 317 -10 62 7 73 24 15 36 -129 17 -291 -51 -431 -73 -152 -222 -274 -385
-316 -80 -21 -228 -21 -308 0 -221 57 -395 247 -442 483 -84 424 300 804 721
716z m435 -372 c0 -20 -18 -16 -30 7 -15 28 -1 49 17 25 7 -11 13 -25 13 -32z
m-360 -174 c0 -44 -3 -60 -12 -57 -13 5 -23 80 -14 104 13 34 26 10 26 -47z
m-139 -26 c18 -48 22 -83 10 -83 -12 0 -24 26 -36 78 -8 40 11 44 26 5z m303
19 c8 -13 -19 -95 -32 -100 -15 -5 -15 20 0 69 11 38 21 48 32 31z m-396 -127
c14 -30 15 -55 4 -55 -10 0 -32 45 -32 65 0 23 16 17 28 -10z m492 10 c0 -20
-22 -65 -31 -65 -16 0 -17 16 -4 48 14 33 35 43 35 17z"/>
<path d="M660 1265 c7 -9 35 -34 61 -56 l49 -41 51 37 c28 21 47 41 42 46 -11
11 -118 29 -171 29 -39 0 -43 -2 -32 -15z"/>
<path d="M387 1123 c-11 -10 -8 -61 3 -68 6 -4 10 10 10 34 0 42 -2 46 -13 34z"/>
<path d="M745 1100 c-6 -20 10 -60 25 -60 13 0 22 37 15 60 -8 26 -32 26 -40
0z"/>
<path d="M677 1042 l-28 -29 26 -17 c25 -17 28 -17 46 0 23 21 23 23 1 52
l-18 23 -27 -29z"/>
<path d="M806 1042 c-14 -27 -14 -31 3 -46 15 -14 23 -15 45 -5 14 7 26 15 26
18 -1 9 -22 34 -42 49 -15 12 -19 10 -32 -16z"/>
<path d="M361 967 c-36 -53 -40 -98 -11 -127 26 -26 51 -25 84 1 36 28 34 65
-8 123 l-34 48 -31 -45z m60 -18 c18 -25 20 -35 10 -55 -18 -40 -81 -27 -81
17 0 14 36 69 45 69 2 0 14 -14 26 -31z"/>
<path d="M385 928 c-9 -22 4 -43 17 -30 7 7 7 16 0 29 -10 17 -11 17 -17 1z"/>
<path d="M615 967 c-24 -18 -11 -37 25 -37 34 0 47 15 30 35 -15 19 -31 19
-55 2z"/>
<path d="M737 974 c-13 -14 -7 -43 12 -53 24 -13 55 8 50 35 -4 19 -48 32 -62
18z"/>
<path d="M864 965 c-16 -13 -17 -16 -4 -25 36 -24 84 -4 60 25 -16 19 -31 19
-56 0z"/>
<path d="M1046 941 c-24 -27 -17 -70 17 -95 27 -20 28 -20 62 -2 39 22 46 55
19 94 -20 28 -74 30 -98 3z m44 -4 c0 -7 -5 -18 -11 -24 -8 -8 -7 -17 2 -31
15 -24 9 -35 -15 -26 -25 10 -31 51 -11 74 21 23 35 26 35 7z"/>
<path d="M677 909 l-29 -17 30 -33 29 -32 15 30 c13 27 13 32 -1 50 -16 19
-17 19 -44 2z"/>
<path d="M808 903 c-14 -16 -14 -21 2 -45 l17 -28 28 30 c30 31 28 42 -11 54
-13 4 -26 0 -36 -11z"/>
<path d="M265 900 c-7 -12 2 -30 16 -30 5 0 9 9 9 20 0 21 -15 27 -25 10z"/>
<path d="M495 900 c-7 -12 2 -30 16 -30 5 0 9 9 9 20 0 21 -15 27 -25 10z"/>
<path d="M750 849 c-17 -30 3 -77 25 -59 19 16 19 54 1 69 -12 10 -17 8 -26
-10z"/>
<path d="M284 809 c-10 -17 13 -36 27 -22 12 12 4 33 -11 33 -5 0 -12 -5 -16
-11z"/>
<path d="M470 800 c0 -13 5 -20 13 -17 6 2 12 10 12 17 0 7 -6 15 -12 18 -8 2
-13 -5 -13 -18z"/>
<path d="M377 784 c-9 -10 2 -24 19 -24 8 0 14 7 14 15 0 15 -21 21 -33 9z"/>
<path d="M285 660 c-7 -12 2 -30 16 -30 5 0 9 9 9 20 0 21 -15 27 -25 10z"/>
<path d="M470 650 c0 -13 5 -20 13 -17 6 2 12 10 12 17 0 7 -6 15 -12 18 -8 2
-13 -5 -13 -18z"/>
<path d="M386 603 c-12 -12 -6 -33 9 -33 8 0 15 6 15 14 0 17 -14 28 -24 19z"/>
<path d="M802 509 l10 -30 24 22 c33 30 30 39 -10 39 -35 0 -35 0 -24 -31z"/>
<path d="M939 522 c5 -10 17 -24 25 -31 12 -10 17 -9 25 8 18 33 13 41 -24 41
-32 0 -35 -2 -26 -18z"/>
<path d="M1076 501 c10 -18 25 -36 32 -38 26 -11 21 4 -15 38 l-36 34 19 -34z"/>
<path d="M690 490 c-30 -25 -32 -30 -15 -30 13 0 28 12 38 30 22 37 21 37 -23
0z"/>
<path d="M747 490 c-22 -36 -21 -38 15 -31 24 6 25 8 15 34 l-12 28 -18 -31z"/>
<path d="M910 488 c0 -17 7 -27 20 -31 11 -3 20 -3 20 0 0 3 -9 16 -20 30
l-20 26 0 -25z"/>
<path d="M1020 501 c0 -5 -3 -16 -6 -25 -5 -12 0 -16 20 -16 29 0 30 3 16 31
-11 20 -30 26 -30 10z"/>
<path d="M855 480 c-18 -19 -17 -20 3 -20 15 0 22 6 22 20 0 11 -2 20 -3 20
-2 0 -12 -9 -22 -20z"/>
<path d="M388 461 c-48 -43 -48 -109 0 -152 91 -82 218 25 155 131 -33 57
-104 66 -155 21z m54 -37 c-28 -19 -28 -51 -1 -80 27 -29 8 -39 -25 -13 -36
29 -36 80 1 109 18 14 30 17 37 10 7 -7 3 -15 -12 -26z"/>
<path d="M660 421 c0 -5 29 -40 65 -77 l66 -69 -38 60 c-20 33 -44 68 -52 78
-15 18 -41 23 -41 8z"/>
<path d="M740 420 c0 -10 85 -147 103 -165 10 -11 10 -11 -23 103 -20 68 -22
72 -50 72 -17 0 -30 -4 -30 -10z"/>
<path d="M837 423 c-2 -5 6 -42 19 -83 l23 -75 0 83 c1 75 -1 82 -18 82 -11 0
-22 -3 -24 -7z"/>
<path d="M911 338 l1 -93 24 75 c31 97 31 110 -1 110 -25 0 -25 0 -24 -92z"/>
<path d="M997 423 c-7 -11 -47 -157 -47 -169 1 -10 110 157 110 169 0 4 -13 7
-29 7 -17 0 -32 -3 -34 -7z"/>
<path d="M1065 368 c-56 -86 -55 -89 9 -19 56 61 67 81 44 81 -7 0 -31 -28
-53 -62z"/>
<path d="M220 358 c0 -18 101 -128 118 -128 24 0 13 68 -15 100 -32 35 -103
54 -103 28z"/>
<path d="M543 264 c-17 -9 -36 -28 -43 -44 -16 -38 -9 -84 12 -88 15 -3 17 2
12 28 -5 24 -2 36 16 55 13 14 29 25 37 25 20 0 16 -24 -7 -38 -27 -16 -25
-44 4 -69 25 -22 82 -33 104 -19 7 4 12 28 12 57 0 53 -19 81 -66 99 -34 13
-43 12 -81 -6z"/>
<path d="M380 258 c0 -7 -3 -23 -6 -34 -4 -17 2 -26 29 -43 45 -27 57 -27 57
5 0 14 5 34 10 45 10 17 7 19 -20 19 -17 0 -40 5 -51 10 -14 8 -19 7 -19 -2z"/>
</g>
</svg>
